FILE "Bakumatsu Roman Gekka no Kenshi (1998)(SNK)(M4)[h][aka Last Blade, The].img" BINARY
  TRACK 01 MODE1/2352
    INDEX 01 00:00:00
  TRACK 02 AUDIO
    PREGAP 00:02:00
    INDEX 00 09:13:27
    INDEX 01 09:14:27
  TRACK 03 AUDIO
    INDEX 00 10:05:43
    INDEX 01 10:07:43
  TRACK 04 AUDIO
    INDEX 00 10:24:04
    INDEX 01 10:26:04
  TRACK 05 AUDIO
    INDEX 00 10:48:14
    INDEX 01 10:50:14
  TRACK 06 AUDIO
    INDEX 00 11:03:11
    INDEX 01 11:05:11
  TRACK 07 AUDIO
    INDEX 00 11:27:11
    INDEX 01 11:29:11
  TRACK 08 AUDIO
    INDEX 00 11:45:12
    INDEX 01 11:47:12
  TRACK 09 AUDIO
    INDEX 00 12:03:12
    INDEX 01 12:05:12
  TRACK 10 AUDIO
    INDEX 00 14:15:13
    INDEX 01 14:17:13
  TRACK 11 AUDIO
    INDEX 00 16:27:15
    INDEX 01 16:29:15
  TRACK 12 AUDIO
    INDEX 00 18:39:15
    INDEX 01 18:41:15
  TRACK 13 AUDIO
    INDEX 00 20:51:15
    INDEX 01 20:53:15
  TRACK 14 AUDIO
    INDEX 00 23:03:16
    INDEX 01 23:05:16
  TRACK 15 AUDIO
    INDEX 00 25:15:17
    INDEX 01 25:17:17
  TRACK 16 AUDIO
    INDEX 00 25:57:18
    INDEX 01 25:59:18
  TRACK 17 AUDIO
    INDEX 00 28:09:19
    INDEX 01 28:11:19
  TRACK 18 AUDIO
    INDEX 00 30:21:20
    INDEX 01 30:23:20
  TRACK 19 AUDIO
    INDEX 00 32:33:21
    INDEX 01 32:35:21
  TRACK 20 AUDIO
    INDEX 00 34:45:22
    INDEX 01 34:47:22
  TRACK 21 AUDIO
    INDEX 00 36:57:24
    INDEX 01 36:59:24
  TRACK 22 AUDIO
    INDEX 00 39:09:25
    INDEX 01 39:11:25
  TRACK 23 AUDIO
    INDEX 00 41:21:26
    INDEX 01 41:23:26
  TRACK 24 AUDIO
    INDEX 00 43:43:27
    INDEX 01 43:45:27
  TRACK 25 AUDIO
    INDEX 00 46:05:28
    INDEX 01 46:07:28
  TRACK 26 AUDIO
    INDEX 00 48:27:29
    INDEX 01 48:29:29
  TRACK 27 AUDIO
    INDEX 00 50:49:30
    INDEX 01 50:51:30
  TRACK 28 AUDIO
    INDEX 00 51:58:61
    INDEX 01 52:00:61
  TRACK 29 AUDIO
    INDEX 00 54:20:62
    INDEX 01 54:22:62
  TRACK 30 AUDIO
    INDEX 00 55:07:63
    INDEX 01 55:09:63
  TRACK 31 AUDIO
    INDEX 00 57:31:70
    INDEX 01 57:33:70
  TRACK 32 AUDIO
    INDEX 00 57:50:71
    INDEX 01 57:52:71
  TRACK 33 AUDIO
    INDEX 00 60:12:72
    INDEX 01 60:14:72
  TRACK 34 AUDIO
    INDEX 00 60:44:73
    INDEX 01 60:46:73
  TRACK 35 AUDIO
    INDEX 00 61:04:06
    INDEX 01 61:06:06
  TRACK 36 AUDIO
    INDEX 00 61:51:02
    INDEX 01 61:53:02
  TRACK 37 AUDIO
    INDEX 00 62:20:53
    INDEX 01 62:22:53
  TRACK 38 AUDIO
    INDEX 00 63:04:25
    INDEX 01 63:06:25
  TRACK 39 AUDIO
    INDEX 00 64:36:62
    INDEX 01 64:38:62
  TRACK 40 AUDIO
    INDEX 00 65:58:63
    INDEX 01 66:00:63
  TRACK 41 AUDIO
    INDEX 00 68:56:24
    INDEX 01 68:58:24
